HIERARCHY
ROOT Hips
{
    OFFSET 0.000000 0.000000 0.000000
    CHANNELS 6 Xposition Yposition Zposition Zrotation Xrotation Yrotation
    JOINT Spine
    {
        OFFSET -0.000000 8.505030 0.000000
        CHANNELS 3 Zrotation Xrotation Yrotation
        JOINT Spine1
        {
            OFFSET -0.000000 25.070629 0.000000
            CHANNELS 3 Zrotation Xrotation Yrotation
            JOINT Neck
            {
                OFFSET -0.000000 24.967667 2.269788
                CHANNELS 3 Zrotation Xrotation Yrotation
                JOINT Head
                {
                    OFFSET -0.000000 14.520781 -2.074397
                    CHANNELS 3 Zrotation Xrotation Yrotation
                    End Site
                    {
                        OFFSET -0.000000 25.929966 0.000000
                    }
                }
            }
            JOINT LeftShoulder
            {
                OFFSET 4.117346 22.983784 -0.389865
                CHANNELS 3 Zrotation Xrotation Yrotation
                JOINT LeftArm
                {
                    OFFSET 11.957758 0.000000 0.000000
                    CHANNELS 3 Zrotation Xrotation Yrotation
                    JOINT LeftForeArm
                    {
                        OFFSET 31.907600 0.000000 0.000000
                        CHANNELS 3 Zrotation Xrotation Yrotation
                        JOINT LeftHand
                        {
                            OFFSET 28.601147 0.000000 0.000000
                            CHANNELS 3 Zrotation Xrotation Yrotation
                            End Site
                            {
                                OFFSET 15.557981 0.000000 0.000000
                            }
                        }
                    }
                }
            }
            JOINT RightShoulder
            {
                OFFSET -4.061940 22.983784 -0.389865
                CHANNELS 3 Zrotation Xrotation Yrotation
                JOINT RightArm
                {
                    OFFSET -11.957758 0.000000 0.000000
                    CHANNELS 3 Zrotation Xrotation Yrotation
                    JOINT RightForeArm
                    {
                        OFFSET -31.907600 0.000000 0.000000
                        CHANNELS 3 Zrotation Xrotation Yrotation
                        JOINT RightHand
                        {
                            OFFSET -28.601147 0.000000 0.000000
                            CHANNELS 3 Zrotation Xrotation Yrotation
                            End Site
                            {
                                OFFSET -15.557981 0.000000 0.000000
                            }
                        }
                    }
                }
            }
        }
    }
    JOINT LeftUpLeg
    {
        OFFSET 10.371986 0.000000 0.000000
        CHANNELS 3 Zrotation Xrotation Yrotation
        JOINT LeftLeg
        {
            OFFSET -0.000000 -42.486427 0.000000
            CHANNELS 3 Zrotation Xrotation Yrotation
            JOINT LeftFoot
            {
                OFFSET -0.000000 -48.322342 0.000000
                CHANNELS 3 Zrotation Xrotation Yrotation
                JOINT LeftToeBase
                {
                    OFFSET -0.000000 -6.741791 15.557981
                    CHANNELS 3 Zrotation Xrotation Yrotation
                    End Site
                    {
                        OFFSET -0.000000 0.000000 4.148795
                    }
                }
            }
        }
    }
    JOINT RightUpLeg
    {
        OFFSET -10.371986 0.000000 0.000000
        CHANNELS 3 Zrotation Xrotation Yrotation
        JOINT RightLeg
        {
            OFFSET -0.000000 -42.486427 0.000000
            CHANNELS 3 Zrotation Xrotation Yrotation
            JOINT RightFoot
            {
                OFFSET -0.000000 -48.322342 0.000000
                CHANNELS 3 Zrotation Xrotation Yrotation
                JOINT RightToeBase
                {
                    OFFSET -0.000000 -6.741791 15.557981
                    CHANNELS 3 Zrotation Xrotation Yrotation
                    End Site
                    {
                        OFFSET -0.000000 0.000000 4.148795
                    }
                }
            }
        }
    }
}
MOTION
Frames:    9
Frame Time:    0.008333
109.002792    96.959175    70.344093    4.863422    -2.838253    -137.274185    -3.309449    -7.143853    -1.750398    13.516889    0.278204    -1.576770    -12.751277    44.864819    -44.712250    46.520855    -4.832626    -43.632946    4.269443    5.826159    -10.589095    -79.074326    47.167767    -6.208012    -2.356045    -8.706048    -9.135123    -12.653711    -8.444928    -4.078118    -14.920437    4.835575    -19.947119    68.084526    68.709114    14.792090    -4.478843    -7.045087    8.535290    31.479792    -6.711562    0.005862    6.437501    -21.287930    5.378732    0.470627    57.329803    5.547879    -5.282038    -14.379172    0.557526    0.000000    0.000000    0.000000    0.431303    -15.400520    5.115466    2.531891    18.539339    1.195293    3.304672    -9.601173    -8.528717    0.000000    0.000000    0.000000    
108.506378    97.087051    69.816498    4.747909    -2.884553    -137.449005    -3.048148    -7.151152    -1.566195    12.960774    0.239311    -1.402879    -13.060833    44.721653    -44.555916    46.603451    -4.214991    -43.782391    4.346423    6.124527    -10.331375    -79.125038    47.270966    -6.061419    -2.629785    -9.046041    -8.985246    -13.155232    -8.750786    -4.382188    -14.724822    4.676485    -19.800533    67.664078    68.791565    15.041842    -4.820388    -6.881491    8.698927    31.574646    -6.702278    -0.658842    6.407168    -21.831305    5.285754    -0.401988    56.223316    5.836333    -5.348143    -14.572284    1.105694    0.000000    0.000000    0.000000    0.335846    -14.703189    5.043412    2.452688    18.112940    1.315127    3.449413    -9.618541    -8.397502    0.000000    0.000000    0.000000    
108.028923    97.192535    69.309547    4.664741    -2.925019    -137.539429    -2.966505    -7.188466    -1.317081    12.707026    0.214245    -1.154558    -12.843308    44.729153    -44.751125    46.587170    -4.208538    -43.939625    4.711838    6.024681    -10.516994    -80.005341    47.080166    -5.474651    -2.835603    -9.311432    -8.779507    -13.658201    -8.998864    -4.459716    -14.698405    4.718404    -19.906097    66.953400    68.429619    15.607747    -4.723521    -6.609081    8.918873    31.432928    -6.514840    -0.972422    6.435681    -22.531399    5.088736    -1.266750    55.306377    5.800017    -6.998152    -14.331849    1.837210    0.000000    0.000000    0.000000    0.231160    -14.044831    4.925655    2.410996    17.708084    1.429733    3.503240    -9.660645    -8.281944    0.000000    0.000000    0.000000    
107.563034    97.307907    68.814583    4.525383    -2.971592    -137.644424    -2.809249    -7.039584    -1.143937    12.272202    -0.018013    -0.969180    -12.879990    44.736774    -44.824982    46.571972    -3.987397    -44.133324    4.848503    6.130665    -10.403103    -80.455826    47.077194    -5.006719    -3.039515    -9.699949    -8.578171    -14.173779    -9.331505    -4.836315    -14.640221    4.584538    -19.714209    67.127144    68.498245    15.398891    -5.105898    -6.753670    8.799828    31.570744    -6.642480    -0.994301    6.278760    -22.975092    5.119001    -1.431081    53.931461    5.957202    -7.620211    -14.182587    2.043416    0.000000    0.000000    0.000000    0.046523    -13.347840    5.254420    2.576746    17.228271    0.888054    3.571612    -9.632064    -7.988991    0.000000    0.000000    0.000000    
107.115402    97.391914    68.304550    4.427879    -2.984310    -137.663330    -2.776720    -6.995946    -0.974225    12.067107    -0.059876    -0.798160    -12.364333    44.855202    -45.249542    46.470848    -4.450861    -44.284901    5.021620    6.191763    -10.344943    -80.851746    47.089340    -4.723022    -3.237808    -10.041407    -8.370666    -14.803051    -9.612061    -5.175324    -14.638344    4.485007    -19.718418    66.831993    68.123970    15.530560    -4.918055    -6.925256    9.151176    30.764341    -6.919340    -1.409481    6.293903    -23.517424    4.869220    -2.275721    52.737240    6.490778    -6.659895    -14.165631    2.961559    0.000000    0.000000    0.000000    0.082519    -12.778959    4.651001    2.183683    17.074755    1.522003    3.942889    -9.728383    -7.935857    0.000000    0.000000    0.000000    
106.639717    97.467468    67.830849    4.350762    -3.093204    -137.774353    -2.681302    -6.965593    -0.748501    11.742565    -0.231292    -0.561453    -12.466040    44.768562    -45.285297    46.533112    -4.141856    -44.466827    5.182784    6.319154    -10.319333    -81.049706    46.695858    -4.659572    -3.673035    -10.240034    -7.879041    -15.551769    -9.712484    -5.770880    -14.540267    4.447483    -19.751245    66.385078    67.719955    15.817626    -4.638423    -7.366704    9.281856    29.795881    -7.447606    -1.722277    6.192896    -23.985411    4.770648    -2.632198    51.238052    7.088367    -7.299615    -13.941419    3.201524    0.000000    0.000000    0.000000    -0.134072    -12.220238    4.806011    2.347497    16.711365    1.550142    4.032599    -9.828659    -8.043200    0.000000    0.000000    0.000000    
106.185829    97.515961    67.345261    4.191664    -3.097407    -137.763992    -2.653822    -6.760723    -0.605519    11.488798    -0.465804    -0.401989    -12.398296    44.832504    -45.438053    46.470673    -4.152969    -44.633545    5.266069    6.471668    -10.318964    -81.360435    46.622055    -4.369865    -3.776166    -10.702573    -7.624284    -16.328133    -10.077252    -6.180111    -14.536263    4.485406    -19.656750    66.324745    67.836014    15.946507    -5.165571    -7.785666    9.136023    29.916512    -7.872341    -1.872688    6.081494    -24.438744    4.449654    -3.117162    49.795822    8.343429    -7.412833    -13.538051    3.287817    0.000000    0.000000    0.000000    -0.244902    -11.575134    4.587999    2.245286    16.478315    1.876971    3.649184    -10.050446    -8.143717    0.000000    0.000000    0.000000    
105.747536    97.570297    66.866142    4.298955    -3.196263    -137.796509    -2.414275    -6.959782    -0.499347    11.119382    -0.431769    -0.310558    -12.254212    44.761982    -45.630524    46.359417    -4.196056    -44.792801    5.379731    6.523324    -10.147151    -81.611153    46.588650    -4.130744    -3.921314    -11.066568    -7.378210    -17.172258    -10.349742    -6.499971    -14.459018    4.382110    -19.540281    65.948097    67.226944    16.221153    -4.846444    -7.929772    9.254154    29.109142    -8.002046    -1.792200    6.182522    -25.030806    4.280649    -3.474436    48.286060    9.153832    -7.653395    -13.211043    3.523823    0.000000    0.000000    0.000000    -0.202150    -11.206878    4.544389    2.199625    16.257868    1.848837    3.694660    -10.131624    -8.085790    0.000000    0.000000    0.000000    
105.285957    97.603897    66.395775    4.225815    -3.200507    -137.813202    -2.298331    -6.903034    -0.354685    10.837768    -0.457701    -0.172893    -12.523354    44.647614    -45.631332    46.688290    -3.846704    -44.963108    5.474256    6.536667    -10.051274    -81.850487    46.496792    -3.918991    -3.983655    -11.621577    -7.058358    -18.378487    -10.731297    -7.119949    -14.446942    4.346244    -19.498293    65.762413    67.317947    16.478210    -5.358842    -8.358144    9.150357    29.205402    -8.363811    -1.668551    6.159767    -25.331673    4.123017    -3.643475    46.444302    9.807496    -7.811155    -12.831837    3.896441    0.000000    0.000000    0.000000    -0.264593    -10.650240    4.441018    2.116575    16.067551    2.291939    3.563563    -10.274170    -8.331007    0.000000    0.000000    0.000000    
